<?xml version="1.0" encoding="UTF-8"?>
<svg width="16px" height="16px" viewBox="0 0 16 16" version="1.1" xmlns="http://www.w3.org/2000/svg" xmlns:xlink="http://www.w3.org/1999/xlink">
    <!-- Generator: sketchtool 41.2 (35397) - http://www.bohemiancoding.com/sketch -->
    <title>2A3DAE37-8FB1-470F-88BB-47AECD50061D</title>
    <desc>Created with sketchtool.</desc>
    <defs></defs>
    <g id="Already-Made" stroke="none" stroke-width="1" fill="none" fill-rule="evenodd">
        <g id="Equal-Pay-Home" transform="translate(-1275.000000, -3615.000000)" fill="#FFFFFF">
            <g id="Footer-#11" transform="translate(0.000000, 3550.000000)">
                <g id="Social" transform="translate(1275.000000, 65.000000)">
                    <g id="Group-2">
                        <path d="M16,15.1165831 C16,15.6042711 15.6046961,16 15.1169949,16 L11.0397429,16 L11.0397429,9.80387884 L13.1195554,9.80387884 L13.4311787,7.38940946 L11.0397429,7.38940946 L11.0397429,5.84746132 C11.0397429,5.14839834 11.234126,4.67204184 12.2365504,4.67204184 L13.5152951,4.67160601 L13.5152951,2.51165831 C13.2938901,2.48245805 12.5350985,2.41664851 11.6520934,2.41664851 C9.80850426,2.41664851 8.54632127,3.54194814 8.54632127,5.60862933 L8.54632127,7.38940946 L6.46127864,7.38940946 L6.46127864,9.80387884 L8.54632127,9.80387884 L8.54632127,16 L0.883005094,16 C0.39530386,16 0,15.6042711 0,15.1165831 L0,0.883416866 C0,0.395293092 0.39530386,0 0.883005094,0 L15.1169949,0 C15.6046961,0 16,0.395293092 16,0.883416866 L16,15.1165831" id="Facebook"></path>
                    </g>
                </g>
            </g>
        </g>
    </g>
</svg>