<?xml version="1.0" encoding="UTF-8"?>
<svg width="17px" height="15px" viewBox="0 0 17 15" version="1.1" xmlns="http://www.w3.org/2000/svg" xmlns:xlink="http://www.w3.org/1999/xlink">
    <!-- Generator: sketchtool 41.2 (35397) - http://www.bohemiancoding.com/sketch -->
    <title>B4EFB714-4602-4075-AEB5-0932D047E487</title>
    <desc>Created with sketchtool.</desc>
    <defs></defs>
    <g id="Already-Made" stroke="none" stroke-width="1" fill="none" fill-rule="evenodd">
        <g id="Equal-Pay-Home" transform="translate(-1313.000000, -3616.000000)" fill="#FFFFFF">
            <g id="Footer-#11" transform="translate(0.000000, 3550.000000)">
                <g id="Social" transform="translate(1275.000000, 65.000000)">
                    <g id="Group-2">
                        <path d="M52.3147144,2.12893458 C51.6801591,1.43413574 50.7732625,1 49.7692308,1 C47.8446853,1 46.2828078,2.60212438 46.2828078,4.57798696 C46.2828078,4.85863119 46.3127653,5.13064721 46.3726804,5.39267265 C43.4740608,5.2432682 40.9045203,3.82051999 39.1833231,1.65302008 C38.8828398,2.18342861 38.7112648,2.79875699 38.7112648,3.45404766 C38.7112648,4.694695 39.3267562,5.79002493 40.2631565,6.43169209 C39.6921475,6.41443565 39.1533656,6.2518618 38.682215,5.98574931 L38.682215,6.02934453 C38.682215,7.76361692 39.884602,9.21043333 41.4814301,9.5378516 C41.189117,9.62186323 40.8804635,9.6640961 40.5622781,9.6640961 C40.3375965,9.6640961 40.1183617,9.64229849 39.9059354,9.60051973 C40.3498518,11.0214515 41.6371185,12.0563839 43.1635917,12.084085 C41.9702828,13.0440881 40.4655969,13.6162754 38.8320028,13.6162754 C38.5505834,13.6162754 38.2723413,13.5999272 38,13.5672307 C39.5432676,14.5808196 41.3774864,15.1734422 43.3465143,15.1734422 C49.7624222,15.1734422 53.2697247,9.72222306 53.2697247,4.99350391 C53.2697247,4.83774182 53.2670013,4.68243384 53.2611006,4.52985057 C53.9424078,4.0253267 54.5342963,3.39546658 55,2.6779619 C54.3754305,2.96223907 53.7027474,3.15478463 52.9973834,3.24106684 C53.7177262,2.79875699 54.2705791,2.09760052 54.531119,1.26202544 C53.8566203,1.67163888 53.1113128,1.96953955 52.3147144,2.12893458 Z" id="Twitter"></path>
                    </g>
                </g>
            </g>
        </g>
    </g>
</svg>